<svg xmlns="http://www.w3.org/2000/svg" viewBox="0 0 512 512" role="img" aria-label="QR PWA">
  <rect width="512" height="512" rx="80" fill="#0f8b8d"/>
  <rect x="74" y="74" width="364" height="364" rx="36" fill="#ffffff"/>
  <rect x="112" y="112" width="92" height="92" rx="12" fill="#171b19"/>
  <rect x="134" y="134" width="48" height="48" rx="6" fill="#ffffff"/>
  <rect x="308" y="112" width="92" height="92" rx="12" fill="#171b19"/>
  <rect x="330" y="134" width="48" height="48" rx="6" fill="#ffffff"/>
  <rect x="112" y="308" width="92" height="92" rx="12" fill="#171b19"/>
  <rect x="134" y="330" width="48" height="48" rx="6" fill="#ffffff"/>
  <rect x="244" y="236" width="42" height="42" rx="8" fill="#f7b32b"/>
  <rect x="308" y="248" width="36" height="36" rx="7" fill="#171b19"/>
  <rect x="364" y="248" width="36" height="36" rx="7" fill="#171b19"/>
  <rect x="244" y="306" width="36" height="36" rx="7" fill="#171b19"/>
  <rect x="306" y="306" width="94" height="36" rx="7" fill="#171b19"/>
  <rect x="244" y="364" width="92" height="36" rx="7" fill="#171b19"/>
  <rect x="364" y="364" width="36" height="36" rx="7" fill="#f25f5c"/>
</svg>
